<svg width="84" height="84" viewBox="0 0 84 84" fill="none" xmlns="http://www.w3.org/2000/svg">
<g filter="url(#filter0_dd_285_890)">
<rect x="18" y="14" width="48" height="48" rx="16" fill="#F2F2F5"/>
<path fill-rule="evenodd" clip-rule="evenodd" d="M38.7518 31.2996C38.0583 32.0903 37.6667 33.2366 37.6667 34.6V36.3333C37.6667 37.1939 37.2794 37.9088 36.8688 38.4535C36.4934 38.9517 36.0258 39.399 35.6586 39.7502C35.6277 39.7797 35.5976 39.8085 35.5683 39.8366C35.2248 40.1662 35 40.6136 35 41.1333C35 41.6585 35.3936 42 35.7778 42H48.2222C48.6064 42 49 41.6585 49 41.1333C49 40.6136 48.7752 40.1662 48.4317 39.8366C48.4024 39.8085 48.3723 39.7797 48.3414 39.7502C47.9742 39.399 47.5066 38.9517 47.1312 38.4535C46.7206 37.9088 46.3333 37.1939 46.3333 36.3333V34.6C46.3333 33.2366 45.9417 32.0903 45.2482 31.2996C44.5713 30.5278 43.5251 30 42 30C40.4749 30 39.4287 30.5278 38.7518 31.2996ZM37.2482 29.9808C38.349 28.7258 39.9695 28 42 28C44.0305 28 45.651 28.7258 46.7518 29.9808C47.836 31.2169 48.3333 32.8706 48.3333 34.6V36.3333C48.3333 36.5774 48.4428 36.8709 48.7283 37.2498C49.002 37.6129 49.3573 37.9534 49.7498 38.3296C49.7718 38.3508 49.794 38.372 49.8163 38.3934C50.5 39.0494 51 39.9996 51 41.1333C51 42.67 49.8018 44 48.2222 44H35.7778C34.1982 44 33 42.67 33 41.1333C33 39.9996 33.5 39.0494 34.1837 38.3934C34.206 38.372 34.2282 38.3508 34.2502 38.3296C34.6427 37.9534 34.998 37.6129 35.2717 37.2498C35.5572 36.8709 35.6667 36.5774 35.6667 36.3333V34.6C35.6667 32.8706 36.164 31.2169 37.2482 29.9808Z" fill="#333333"/>
<path fill-rule="evenodd" clip-rule="evenodd" d="M39.4431 45.1696C39.9018 44.862 40.523 44.9844 40.8306 45.4431C40.93 45.5913 41.0844 45.7311 41.292 45.8346C41.4999 45.9381 41.7445 45.9966 42.0001 45.9966C42.2557 45.9966 42.5003 45.9381 42.7082 45.8346C42.9158 45.7311 43.0702 45.5913 43.1696 45.4431C43.4772 44.9844 44.0984 44.862 44.5571 45.1696C45.0158 45.4772 45.1382 46.0984 44.8306 46.5571C44.5235 47.015 44.0945 47.3784 43.6001 47.6247C43.1059 47.8709 42.5547 47.9966 42.0001 47.9966C41.4455 47.9966 40.8943 47.8709 40.4001 47.6247C39.9057 47.3784 39.4767 47.015 39.1696 46.5571C38.862 46.0984 38.9844 45.4772 39.4431 45.1696Z" fill="#333333"/>
</g>
<defs>
<filter id="filter0_dd_285_890" x="0" y="0" width="84" height="84" filterUnits="userSpaceOnUse" color-interpolation-filters="sRGB">
<feFlood flood-opacity="0" result="BackgroundImageFix"/>
<feColorMatrix in="SourceAlpha" type="matrix" values="0 0 0 0 0 0 0 0 0 0 0 0 0 0 0 0 0 0 127 0" result="hardAlpha"/>
<feMorphology radius="2" operator="erode" in="SourceAlpha" result="effect1_dropShadow_285_890"/>
<feOffset dy="4"/>
<feGaussianBlur stdDeviation="10"/>
<feColorMatrix type="matrix" values="0 0 0 0 0.196078 0 0 0 0 0.196078 0 0 0 0 0.278431 0 0 0 0.02 0"/>
<feBlend mode="normal" in2="BackgroundImageFix" result="effect1_dropShadow_285_890"/>
<feColorMatrix in="SourceAlpha" type="matrix" values="0 0 0 0 0 0 0 0 0 0 0 0 0 0 0 0 0 0 127 0" result="hardAlpha"/>
<feOffset/>
<feGaussianBlur stdDeviation="1"/>
<feColorMatrix type="matrix" values="0 0 0 0 0.0470588 0 0 0 0 0.101961 0 0 0 0 0.294118 0 0 0 0.05 0"/>
<feBlend mode="normal" in2="effect1_dropShadow_285_890" result="effect2_dropShadow_285_890"/>
<feBlend mode="normal" in="SourceGraphic" in2="effect2_dropShadow_285_890" result="shape"/>
</filter>
</defs>
</svg>
