<svg width="84" height="84" viewBox="0 0 84 84" fill="none" xmlns="http://www.w3.org/2000/svg">
<g filter="url(#filter0_dd_285_896)">
<rect x="18" y="14" width="48" height="48" rx="16" fill="#F2F2F5"/>
<path fill-rule="evenodd" clip-rule="evenodd" d="M42 30C37.5817 30 34 33.5817 34 38C34 39.6921 34.5242 41.2588 35.4192 42.5503C35.7153 42.9778 35.7867 43.5484 35.5521 44.0532L34.6473 46H42C46.4183 46 50 42.4183 50 38C50 33.5817 46.4183 30 42 30ZM32 38C32 32.4772 36.4772 28 42 28C47.5228 28 52 32.4772 52 38C52 43.5228 47.5228 48 42 48H33.8616C32.7274 48 32.0099 46.7933 32.5341 45.8016L33.6218 43.4613C32.5962 41.8909 32 40.0137 32 38Z" fill="#333333"/>
</g>
<defs>
<filter id="filter0_dd_285_896" x="0" y="0" width="84" height="84" filterUnits="userSpaceOnUse" color-interpolation-filters="sRGB">
<feFlood flood-opacity="0" result="BackgroundImageFix"/>
<feColorMatrix in="SourceAlpha" type="matrix" values="0 0 0 0 0 0 0 0 0 0 0 0 0 0 0 0 0 0 127 0" result="hardAlpha"/>
<feMorphology radius="2" operator="erode" in="SourceAlpha" result="effect1_dropShadow_285_896"/>
<feOffset dy="4"/>
<feGaussianBlur stdDeviation="10"/>
<feColorMatrix type="matrix" values="0 0 0 0 0.196078 0 0 0 0 0.196078 0 0 0 0 0.278431 0 0 0 0.02 0"/>
<feBlend mode="normal" in2="BackgroundImageFix" result="effect1_dropShadow_285_896"/>
<feColorMatrix in="SourceAlpha" type="matrix" values="0 0 0 0 0 0 0 0 0 0 0 0 0 0 0 0 0 0 127 0" result="hardAlpha"/>
<feOffset/>
<feGaussianBlur stdDeviation="1"/>
<feColorMatrix type="matrix" values="0 0 0 0 0.0470588 0 0 0 0 0.101961 0 0 0 0 0.294118 0 0 0 0.05 0"/>
<feBlend mode="normal" in2="effect1_dropShadow_285_896" result="effect2_dropShadow_285_896"/>
<feBlend mode="normal" in="SourceGraphic" in2="effect2_dropShadow_285_896" result="shape"/>
</filter>
</defs>
</svg>
