<svg width="84" height="84" viewBox="0 0 84 84" fill="none" xmlns="http://www.w3.org/2000/svg">
<g filter="url(#filter0_dd_285_916)">
<rect x="18" y="14" width="48" height="48" rx="16" fill="#F2F2F5"/>
<path fill-rule="evenodd" clip-rule="evenodd" d="M43.8186 30.6664C42.7439 29.7779 41.2561 29.7779 40.1815 30.6664L34.7954 35.1196C34.3042 35.5257 34 36.1673 34 36.8663V44.8739C34 45.5543 34.5044 46 35 46H37C37.5523 46 38 45.5523 38 45V41.6848C38 40.0168 39.2864 38.5587 41 38.5587H43C44.7136 38.5587 46 40.0168 46 41.6848V45C46 45.5523 46.4477 46 47 46H49C49.4956 46 50 45.5543 50 44.8739V36.8663C50 36.1673 49.6958 35.5257 49.2046 35.1196L43.8186 30.6664ZM45.093 29.125L50.479 33.5783C51.4494 34.3806 52 35.5971 52 36.8663V44.8739C52 46.5419 50.7136 48 49 48H47C45.3431 48 44 46.6569 44 45V41.6848C44 41.0044 43.4956 40.5587 43 40.5587H41C40.5044 40.5587 40 41.0044 40 41.6848V45C40 46.6569 38.6569 48 37 48H35C33.2864 48 32 46.5419 32 44.8739V36.8663C32 35.5971 32.5506 34.3806 33.521 33.5783L38.907 29.125C40.7213 27.625 43.2787 27.625 45.093 29.125Z" fill="#333333"/>
</g>
<defs>
<filter id="filter0_dd_285_916" x="0" y="0" width="84" height="84" filterUnits="userSpaceOnUse" color-interpolation-filters="sRGB">
<feFlood flood-opacity="0" result="BackgroundImageFix"/>
<feColorMatrix in="SourceAlpha" type="matrix" values="0 0 0 0 0 0 0 0 0 0 0 0 0 0 0 0 0 0 127 0" result="hardAlpha"/>
<feMorphology radius="2" operator="erode" in="SourceAlpha" result="effect1_dropShadow_285_916"/>
<feOffset dy="4"/>
<feGaussianBlur stdDeviation="10"/>
<feColorMatrix type="matrix" values="0 0 0 0 0.196078 0 0 0 0 0.196078 0 0 0 0 0.278431 0 0 0 0.02 0"/>
<feBlend mode="normal" in2="BackgroundImageFix" result="effect1_dropShadow_285_916"/>
<feColorMatrix in="SourceAlpha" type="matrix" values="0 0 0 0 0 0 0 0 0 0 0 0 0 0 0 0 0 0 127 0" result="hardAlpha"/>
<feOffset/>
<feGaussianBlur stdDeviation="1"/>
<feColorMatrix type="matrix" values="0 0 0 0 0.0470588 0 0 0 0 0.101961 0 0 0 0 0.294118 0 0 0 0.05 0"/>
<feBlend mode="normal" in2="effect1_dropShadow_285_916" result="effect2_dropShadow_285_916"/>
<feBlend mode="normal" in="SourceGraphic" in2="effect2_dropShadow_285_916" result="shape"/>
</filter>
</defs>
</svg>
