<svg width="112" height="112" viewBox="0 0 112 112" fill="none" xmlns="http://www.w3.org/2000/svg">
<path fill-rule="evenodd" clip-rule="evenodd" d="M56.0003 11.3334C31.3316 11.3334 11.3337 31.3314 11.3337 56.0001C11.3337 65.4479 14.2607 74.1953 19.2573 81.4062C20.9109 83.7926 21.3096 86.9787 19.9997 89.7969L14.9477 100.667H56.0003C80.669 100.667 100.667 80.6688 100.667 56.0001C100.667 31.3314 80.669 11.3334 56.0003 11.3334ZM0.166992 56.0001C0.166992 25.1642 25.1644 0.166748 56.0003 0.166748C86.8362 0.166748 111.834 25.1642 111.834 56.0001C111.834 86.836 86.8362 111.833 56.0003 111.833H10.5609C4.22811 111.833 0.222051 105.096 3.1488 99.5588L9.22178 86.4923C3.49584 77.724 0.166992 67.2432 0.166992 56.0001Z" fill="#FFC059"/>
</svg>
