<svg width="26" height="25" viewBox="0 0 26 25" fill="none" xmlns="http://www.w3.org/2000/svg">
<ellipse cx="13.2011" cy="12.5" rx="12.8" ry="12" fill="white"/>
<mask id="mask0_14_10135" style="mask-type:luminance" maskUnits="userSpaceOnUse" x="3" y="3" width="20" height="19">
<rect x="3.60107" y="3.5" width="19.2" height="18" fill="white"/>
</mask>
<g mask="url(#mask0_14_10135)">
<path fill-rule="evenodd" clip-rule="evenodd" d="M21.0454 11.0311H20.401V11H13.201V14H17.7222C17.0626 15.7464 15.2902 17 13.201 17C10.5502 17 8.40099 14.9851 8.40099 12.5C8.40099 10.0149 10.5502 8 13.201 8C14.4246 8 15.5378 8.43275 16.3854 9.13963L18.6482 7.01825C17.2194 5.76987 15.3082 5 13.201 5C8.78299 5 5.20099 8.35813 5.20099 12.5C5.20099 16.6419 8.78299 20 13.201 20C17.619 20 21.201 16.6419 21.201 12.5C21.201 11.9971 21.1458 11.5062 21.0454 11.0311Z" fill="#FFC059"/>
<path fill-rule="evenodd" clip-rule="evenodd" d="M6.12347 9.00912L8.75187 10.8162C9.46307 9.1655 11.1855 8 13.2011 8C14.4247 8 15.5379 8.43275 16.3855 9.13962L18.6483 7.01825C17.2195 5.76987 15.3083 5 13.2011 5C10.1283 5 7.46347 6.62637 6.12347 9.00912Z" fill="#FFC059"/>
<path fill-rule="evenodd" clip-rule="evenodd" d="M13.2009 20.0003C15.2673 20.0003 17.1449 19.2589 18.5645 18.0533L16.0885 16.089C15.2853 16.6594 14.2869 17.0003 13.2009 17.0003C11.1201 17.0003 9.35332 15.7564 8.68772 14.0205L6.07892 15.9049C7.40292 18.3338 10.0917 20.0003 13.2009 20.0003Z" fill="#FFC059"/>
<path fill-rule="evenodd" clip-rule="evenodd" d="M21.0455 11.0311H20.4011V11H13.201V14H17.7223C17.4055 14.8389 16.8299 15.5623 16.0875 16.0891C16.0879 16.0888 16.0883 16.0887 16.0887 16.0884L18.5647 18.0526C18.3895 18.2019 21.201 16.25 21.201 12.5C21.201 11.9971 21.1459 11.5063 21.0455 11.0311Z" fill="#FFC059"/>
</g>
</svg>
